<svg width="264" height="78" viewBox="0 0 264 78" fill="none"
    xmlns="http://www.w3.org/2000/svg">
    <mask id="path-1-outside-1_233_26" maskUnits="userSpaceOnUse" x="0" y="0" width="264" height="78" fill="black">
        <rect fill="white" width="264" height="78"/>
        <path d="M191.638 36.4405C193.534 37.7449 195.135 39.2895 196.443 41.0744C197.816 42.7906 198.894 44.9188 199.679 47.4588C200.529 50.2735 200.954 53.1224 200.954 56.0057C201.019 58.8203 200.529 61.4634 199.483 63.9347C198.502 66.3375 196.9 68.4656 194.678 70.3192C192.52 72.1041 189.676 73.3741 186.146 74.1292C184.25 74.6098 182.027 74.9873 179.478 75.2619C176.928 75.5365 174.64 75.6738 172.613 75.6738C170.063 75.7425 167.416 75.7425 164.67 75.6738C161.989 75.6738 159.374 75.3992 156.825 74.8501C155.713 74.5068 154.896 73.9233 154.373 73.0995C153.915 72.207 153.588 71.2116 153.392 70.1132C153.131 69.4954 153 68.8775 153 68.2597V9.77012C153 7.84793 153.36 6.37197 154.079 5.34222C154.863 4.24382 155.877 3.45435 157.119 2.97381C158.361 2.42461 159.766 2.11568 161.336 2.04703C162.905 1.90973 164.539 1.84108 166.239 1.84108C167.546 1.84108 168.854 1.84108 170.161 1.84108C171.534 1.77243 172.907 1.77243 174.28 1.84108C176.438 1.90973 178.66 2.11568 180.949 2.45893C183.302 2.73353 185.525 3.28273 187.617 4.10652C188.598 4.44977 189.644 4.93032 190.755 5.54817C191.866 6.09737 192.749 6.78386 193.403 7.60766C195.495 9.5985 197.031 11.9326 198.012 14.6099C199.058 17.2186 199.516 19.896 199.385 22.6419C199.254 25.3193 198.535 27.8936 197.227 30.365C195.985 32.8364 194.122 34.8616 191.638 36.4405ZM174.476 63.7288C176.503 63.5915 178.562 63.3512 180.654 63.008C182.746 62.6647 184.185 62.0125 184.969 61.0515C185.819 59.9531 186.408 58.683 186.734 57.2414C187.127 55.7311 187.225 54.2208 187.029 52.7105C186.898 51.1316 186.473 49.6556 185.754 48.2826C185.1 46.841 184.217 45.7082 183.106 44.8844C181.602 43.6488 179.87 42.8593 177.909 42.516C175.947 42.1041 174.019 41.8982 172.123 41.8982C171.207 41.8982 170.358 41.9325 169.573 42.0012C168.854 42.0012 168.2 42.1041 167.612 42.3101C167.089 42.4474 166.696 42.7563 166.435 43.2369C166.173 43.7174 166.043 44.4382 166.043 45.3993C166.173 47.1842 166.173 48.9691 166.043 50.754C165.912 52.5389 165.847 54.2551 165.847 55.9027C165.847 56.8638 165.814 57.9279 165.748 59.0949C165.748 60.1933 166.108 61.1201 166.827 61.8753C167.546 62.6304 168.592 63.1453 169.965 63.4199C171.338 63.6945 172.842 63.7974 174.476 63.7288ZM176.438 14.301C174.411 14.2324 172.711 14.198 171.338 14.198C170.031 14.1294 168.985 14.2324 168.2 14.507C167.481 14.7129 166.958 15.2278 166.631 16.0516C166.37 16.8067 166.271 17.9738 166.337 19.5527C166.337 20.8571 166.304 22.1614 166.239 23.4657C166.239 24.7014 166.239 25.9371 166.239 27.1728C166.239 28.5458 166.664 29.5756 167.514 30.2621C168.364 30.8799 169.41 31.2575 170.652 31.3948C171.959 31.5321 173.299 31.5321 174.672 31.3948C176.111 31.2575 177.353 31.0859 178.399 30.8799C180.752 30.468 182.55 29.6442 183.792 28.4085C185.1 27.1042 185.852 25.2163 186.048 22.7449C186.309 19.6557 185.525 17.5275 183.694 16.3605C181.929 15.1248 179.51 14.4383 176.438 14.301Z"/>
        <path d="M80.7765 5.41696C81.0745 6.71808 81.0745 8.08768 80.7765 9.52577C80.6276 10.2106 80.4786 10.8954 80.3296 11.5802C80.2551 12.1965 80.1434 12.847 79.9944 13.5318L79.8827 13.9427C78.8399 18.1885 77.648 22.6739 76.3073 27.3991C75.041 32.0557 73.8864 36.4727 72.8436 40.6499C71.9497 44.0739 71.0186 47.8404 70.0503 51.9492C69.0819 56.058 68.0764 59.8244 67.0335 63.2484C66.6611 64.4125 66.2514 65.5767 65.8045 66.7408C65.432 67.905 64.9479 69.0692 64.352 70.2333C63.8305 71.2605 63.1974 72.185 62.4525 73.0068C61.7821 73.76 61 74.3079 60.1061 74.6503C59.2123 75.0612 58.244 75.1981 57.2011 75.0612C56.2328 74.9927 55.1527 74.5818 53.9609 73.8285C52.1732 72.6644 50.8324 71.0551 49.9385 69.0007C49.1192 66.9463 48.2626 65.0631 47.3687 63.3511C47.0708 62.8717 46.6238 61.8103 46.0279 60.1668C45.432 58.5232 44.7989 56.7428 44.1285 54.8253C43.4581 52.8394 42.7877 50.9562 42.1173 49.1757C41.5214 47.3267 41 45.9571 40.5531 45.0669C39.8827 46.5735 39.2123 48.2855 38.5419 50.2029C37.8715 52.1203 37.2384 54.0036 36.6425 55.8525C36.0466 57.7015 35.4879 59.3792 34.9665 60.8858C34.5196 62.3239 34.1844 63.3853 33.9609 64.0701C33.365 65.4397 32.6946 66.9463 31.9497 68.5898C31.2793 70.2333 30.4227 71.6372 29.3799 72.8013C28.4115 73.9655 27.2197 74.7188 25.8045 75.0612C24.3892 75.472 22.7132 75.0954 20.7765 73.9312C19.2868 73.1095 18.2439 71.9453 17.648 70.4388C17.2756 69.48 16.9032 68.5556 16.5307 67.6653C16.1583 66.7751 15.8603 65.8506 15.6369 64.8919L13.4022 57.1879L8.82123 40.6499C8.22533 38.5271 7.62942 36.3699 7.03352 34.1786C6.5121 31.9187 5.87896 29.5904 5.13408 27.1936C4.76164 26.0295 4.42644 24.8995 4.12849 23.8039C3.90503 22.6397 3.64432 21.4071 3.34637 20.1059C3.1229 18.7363 2.82495 17.1955 2.45251 15.4835C2.15456 13.7715 1.78212 11.7856 1.3352 9.52577C1.18622 8.77248 1.07449 8.08768 1 7.47137C1 6.78656 1.07449 6.10176 1.22346 5.41696C1.37244 4.38976 1.89385 3.49952 2.78771 2.74624C3.16015 2.40384 3.60708 2.12992 4.12849 1.92448C4.64991 1.71904 5.20857 1.54784 5.80447 1.41088C6.69832 1.13696 7.62942 1 8.59777 1C9.49162 1 10.4227 1.27392 11.3911 1.82176C12.0615 2.16416 12.5829 2.60928 12.9553 3.15712L14.2961 5.31424C14.4451 5.7936 14.594 6.23872 14.743 6.6496C14.892 6.992 15.041 7.36864 15.1899 7.77952C15.3389 8.25888 15.4507 8.70401 15.5251 9.11488C15.5996 9.45728 15.6741 9.79968 15.7486 10.1421C16.419 13.703 17.2384 17.1613 18.2067 20.5168C19.175 23.8723 20.0689 27.0909 20.8883 30.1725C21.1862 31.4051 21.5587 32.9459 22.0056 34.7949C22.4525 36.5754 22.8994 38.4586 23.3464 40.4445C23.7933 42.3619 24.2402 44.2109 24.6872 45.9914C25.1341 47.7719 25.581 49.1757 26.0279 50.2029C26.9963 47.1213 27.9646 44.0397 28.933 40.9581C29.9758 37.8765 31.0931 34.7607 32.2849 31.6106C32.8808 29.9671 33.4767 28.4947 34.0726 27.1936C34.743 25.824 35.4879 24.6941 36.3073 23.8039C37.1266 22.9136 38.0577 22.3315 39.1006 22.0576C40.1434 21.7837 41.3724 21.8864 42.7877 22.3658C44.054 22.8451 45.1713 23.8723 46.1397 25.4474C47.108 27.0224 47.9646 28.6317 48.7095 30.2752C49.3799 31.7818 50.013 33.3911 50.6089 35.1031C51.2793 36.7466 51.9125 38.3901 52.5084 40.0336C53.1788 41.6087 53.8119 43.1152 54.4078 44.5533C55.0037 45.9914 55.5996 47.224 56.1955 48.2512C56.419 47.4979 56.6797 46.5392 56.9777 45.3751C57.2756 44.2109 57.5736 42.9783 57.8715 41.6771C58.244 40.3075 58.5791 38.9722 58.8771 37.6711C59.1751 36.3699 59.473 35.1715 59.771 34.0759C60.7393 30.3779 61.7449 26.68 62.7877 22.9821C63.8305 19.2157 64.8361 15.5178 65.8045 11.8883L66.3631 10.1421C66.5121 9.79968 66.5866 9.45728 66.5866 9.11488C66.6611 8.70401 66.7728 8.25888 66.9218 7.77952C67.0708 7.36864 67.2197 6.992 67.3687 6.6496C67.5177 6.23872 67.6667 5.7936 67.8156 5.31424C67.9646 4.97184 68.1136 4.62944 68.2626 4.28704C68.486 3.87616 68.7467 3.49952 69.0447 3.15712C69.2682 2.81472 69.5289 2.5408 69.8268 2.33536C70.1248 2.12992 70.4227 1.95872 70.7207 1.82176C71.7635 1.27392 72.6574 1 73.4022 1C74.3706 1 75.3017 1.13696 76.1955 1.41088C77.3873 1.61632 78.4674 2.06144 79.4358 2.74624C80.1806 3.43104 80.6276 4.32128 80.7765 5.41696Z"/>
        <path d="M220.16 4.04658C220.749 3.42873 221.5 3.05116 222.416 2.91386C223.396 2.70791 224.541 2.60493 225.848 2.60493H250.07C250.92 2.60493 251.868 2.60493 252.914 2.60493C254.025 2.53628 255.071 2.60494 256.052 2.81089C257.033 3.01684 257.883 3.39441 258.602 3.9436C259.386 4.42415 259.942 5.21363 260.269 6.31202C260.465 6.99852 260.53 7.78799 260.465 8.68043C260.465 9.57288 260.302 10.431 259.975 11.2548C259.713 12.0099 259.288 12.6964 258.7 13.3143C258.111 13.8635 257.392 14.1724 256.542 14.2411C254.843 14.5843 253.077 14.6873 251.247 14.55C249.416 14.344 247.651 14.2411 245.951 14.2411C244.055 14.2411 242.388 14.3097 240.95 14.447C239.512 14.5843 237.877 14.653 236.047 14.653C235.328 14.653 234.412 14.6186 233.301 14.55C232.19 14.4813 231.34 14.55 230.751 14.7559C230.228 14.8932 229.803 15.1678 229.476 15.5797C229.215 15.9916 229.019 16.4722 228.888 17.0214C228.757 17.5019 228.692 18.0168 228.692 18.566C228.692 19.1152 228.692 19.5957 228.692 20.0076C228.692 21.1747 228.627 22.3761 228.496 23.6117C228.43 24.7788 228.365 25.9458 228.3 27.1129C228.169 28.6918 228.365 29.5843 228.888 29.7902C229.476 29.9275 230.457 29.7902 231.83 29.3783C234.184 28.7605 236.603 28.4516 239.087 28.4516C242.421 28.4516 245.526 28.9321 248.403 29.8932C251.28 30.7856 253.764 32.193 255.856 34.1152C258.013 35.9687 259.681 38.3371 260.857 41.2204C262.099 44.035 262.721 47.3302 262.721 51.106C262.721 51.7925 262.688 52.4446 262.622 53.0625C262.622 53.6803 262.557 54.2982 262.426 54.916C261.903 59.2409 260.367 63.051 257.817 66.3462C255.268 69.6414 252.031 72.0098 248.109 73.4514C243.467 75.305 238.662 76.1631 233.693 76.0258C228.725 75.8199 224.148 74.3096 219.964 71.4949C218.787 70.7398 217.709 69.8473 216.728 68.8176C215.747 67.7192 215.028 66.4835 214.571 65.1105C214.048 63.6689 213.884 62.1929 214.08 60.6826C214.342 59.1036 215.224 57.9366 216.728 57.1815C217.839 56.6323 218.853 56.4606 219.768 56.6666C220.749 56.8039 221.664 57.1471 222.514 57.6963C223.364 58.1769 224.181 58.7947 224.965 59.5499C225.815 60.2364 226.665 60.8199 227.515 61.3004C229.019 62.0556 230.588 62.7078 232.222 63.257C233.857 63.7375 235.589 63.9778 237.42 63.9778C241.473 63.9778 244.709 62.8451 247.128 60.5796C249.613 58.3142 250.855 55.2593 250.855 51.4149C250.855 47.7078 249.58 44.8245 247.03 42.765C244.48 40.6369 241.048 39.5728 236.733 39.5728C235.622 39.5728 234.51 39.6415 233.399 39.7788C232.288 39.9161 231.176 40.1563 230.065 40.4996C229.019 40.7742 227.973 41.0831 226.927 41.4263C225.946 41.7696 224.965 42.0099 223.985 42.1472C223.004 42.2158 222.024 42.1128 221.043 41.8382C220.128 41.495 219.245 40.7742 218.395 39.6758C217.545 38.7147 217.12 37.5476 217.12 36.1746C217.12 34.8017 217.186 33.5316 217.316 32.3646C217.447 30.3737 217.545 28.3829 217.611 26.3921C217.676 24.4012 217.774 22.4104 217.905 20.4195C218.036 18.4287 218.134 16.4722 218.199 14.55C218.33 12.5591 218.46 10.5683 218.591 8.57746C218.657 7.41041 218.82 6.48364 219.082 5.79715C219.343 5.11065 219.703 4.52713 220.16 4.04658Z"/>
        <path d="M107.435 13.3569L107.239 29.5239H111.161C113.842 29.4553 116.228 29.421 118.32 29.421C120.412 29.421 122.733 29.4553 125.283 29.5239H125.773C126.558 29.5239 127.309 29.5583 128.029 29.6269C128.813 29.6269 129.565 29.6269 130.284 29.6269C131.069 29.6956 131.82 29.8329 132.54 30.0388C133.259 30.1761 133.978 30.3477 134.697 30.5537C135.808 30.9656 136.724 31.5834 137.443 32.4072C138.097 33.2997 138.424 34.2951 138.424 35.3935C138.424 35.7367 138.424 36.1486 138.424 36.6292C138.424 37.0411 138.358 37.4187 138.227 37.7619C138.097 38.5171 137.672 39.2036 136.953 39.8214C136.626 40.302 136.005 40.6452 135.089 40.8512C134.239 41.1258 133.389 41.2974 132.54 41.366C131.624 41.572 130.709 41.6749 129.794 41.6749H125.185L107.043 41.7779L106.847 61.9609L126.361 62.1669H130.971C131.494 62.1669 131.984 62.1669 132.442 62.1669C132.899 62.1669 133.324 62.2012 133.716 62.2699C134.239 62.4072 134.697 62.5101 135.089 62.5788C135.547 62.5788 135.972 62.6474 136.364 62.7847C137.149 63.0593 137.802 63.4369 138.325 63.9175C138.979 64.604 139.404 65.3248 139.6 66.0799C139.666 66.4232 139.698 66.8007 139.698 67.2126C139.764 67.5559 139.764 67.9335 139.698 68.3454C139.698 69.4438 139.371 70.4392 138.718 71.3316C137.933 72.2927 137.018 72.9106 135.972 73.1852C134.599 73.803 133.095 74.1119 131.461 74.1119C130.742 74.1806 129.99 74.2149 129.205 74.2149C128.421 74.2149 127.669 74.2492 126.95 74.3179H126.361C121.262 74.4552 115.967 74.4552 110.475 74.3179C109.167 74.3179 108.121 74.2836 107.337 74.2149C106.552 74.2149 105.833 74.2149 105.179 74.2149C104.591 74.2149 103.97 74.2149 103.316 74.2149C102.662 74.2149 101.813 74.2149 100.766 74.2149C99.2628 74.3522 98.0207 74.0776 97.04 73.3911C96.3209 72.9106 95.7652 72.2584 95.3729 71.4346C95.1768 71.2287 95.0787 71.0227 95.0787 70.8167C95.0133 70.6795 94.948 70.5765 94.8826 70.5078C94.8172 70.4392 94.7518 70.3362 94.6865 70.1989C94.5557 69.8557 94.4576 69.5124 94.3923 69.1692C94.3269 68.7573 94.2942 68.3797 94.2942 68.0364C94.2288 67.6932 94.1634 67.3499 94.0981 67.0067C94.0981 66.6634 94.0654 66.3202 94 65.9769V64.3293C94 64.0548 94 63.7802 94 63.5056C94.0654 63.231 94.0981 62.9564 94.0981 62.6818V54.6497L94.2942 39.8214V26.1258C94.2942 23.6544 94.2942 21.4576 94.2942 19.5354C94.3596 17.6132 94.4249 15.5194 94.4903 13.254V12.7391C94.5557 11.984 94.5884 11.2975 94.5884 10.6796C94.6538 9.99311 94.6865 9.30661 94.6865 8.62012C94.7518 7.24712 95.1114 5.90845 95.7652 4.60411C96.0267 4.05491 96.2882 3.57436 96.5497 3.16246C96.8766 2.75057 97.3015 2.40732 97.8245 2.13272C98.8052 1.51487 99.8185 1.20595 100.865 1.20595C101.388 1.20595 101.78 1.24027 102.041 1.30892V1.20595C103.218 1.20595 104.166 1.20595 104.885 1.20595C105.604 1.20595 106.291 1.20595 106.945 1.20595C107.664 1.20595 108.416 1.20595 109.2 1.20595C109.985 1.1373 111.063 1.10297 112.436 1.10297C115.051 1.03432 117.536 1 119.889 1C122.243 1 124.662 1.03432 127.146 1.10297H127.538C128.257 1.17162 129.009 1.20595 129.794 1.20595C130.578 1.20595 131.33 1.24027 132.049 1.30892C132.768 1.30892 133.488 1.41189 134.207 1.61785C134.926 1.75514 135.645 1.96109 136.364 2.23569C137.476 2.57894 138.391 3.16246 139.11 3.98626C139.698 4.94736 139.993 5.90845 139.993 6.86955C139.993 7.28144 139.993 7.69334 139.993 8.10524C139.993 8.44849 139.927 8.79174 139.796 9.13499C139.731 9.82149 139.339 10.5423 138.62 11.2975C138.358 11.4348 138.064 11.6064 137.737 11.8123C137.476 12.0183 137.149 12.1899 136.756 12.3272C136.364 12.4645 135.939 12.5675 135.482 12.6361C135.089 12.6361 134.697 12.6704 134.305 12.7391C133.782 12.8764 133.291 12.945 132.834 12.945C132.442 12.945 131.984 12.945 131.461 12.945H127.048L107.435 13.048V13.3569Z"/>
    </mask>
    <path d="M191.638 36.4405C193.534 37.7449 195.135 39.2895 196.443 41.0744C197.816 42.7906 198.894 44.9188 199.679 47.4588C200.529 50.2735 200.954 53.1224 200.954 56.0057C201.019 58.8203 200.529 61.4634 199.483 63.9347C198.502 66.3375 196.9 68.4656 194.678 70.3192C192.52 72.1041 189.676 73.3741 186.146 74.1292C184.25 74.6098 182.027 74.9873 179.478 75.2619C176.928 75.5365 174.64 75.6738 172.613 75.6738C170.063 75.7425 167.416 75.7425 164.67 75.6738C161.989 75.6738 159.374 75.3992 156.825 74.8501C155.713 74.5068 154.896 73.9233 154.373 73.0995C153.915 72.207 153.588 71.2116 153.392 70.1132C153.131 69.4954 153 68.8775 153 68.2597V9.77012C153 7.84793 153.36 6.37197 154.079 5.34222C154.863 4.24382 155.877 3.45435 157.119 2.97381C158.361 2.42461 159.766 2.11568 161.336 2.04703C162.905 1.90973 164.539 1.84108 166.239 1.84108C167.546 1.84108 168.854 1.84108 170.161 1.84108C171.534 1.77243 172.907 1.77243 174.28 1.84108C176.438 1.90973 178.66 2.11568 180.949 2.45893C183.302 2.73353 185.525 3.28273 187.617 4.10652C188.598 4.44977 189.644 4.93032 190.755 5.54817C191.866 6.09737 192.749 6.78386 193.403 7.60766C195.495 9.5985 197.031 11.9326 198.012 14.6099C199.058 17.2186 199.516 19.896 199.385 22.6419C199.254 25.3193 198.535 27.8936 197.227 30.365C195.985 32.8364 194.122 34.8616 191.638 36.4405ZM174.476 63.7288C176.503 63.5915 178.562 63.3512 180.654 63.008C182.746 62.6647 184.185 62.0125 184.969 61.0515C185.819 59.9531 186.408 58.683 186.734 57.2414C187.127 55.7311 187.225 54.2208 187.029 52.7105C186.898 51.1316 186.473 49.6556 185.754 48.2826C185.1 46.841 184.217 45.7082 183.106 44.8844C181.602 43.6488 179.87 42.8593 177.909 42.516C175.947 42.1041 174.019 41.8982 172.123 41.8982C171.207 41.8982 170.358 41.9325 169.573 42.0012C168.854 42.0012 168.2 42.1041 167.612 42.3101C167.089 42.4474 166.696 42.7563 166.435 43.2369C166.173 43.7174 166.043 44.4382 166.043 45.3993C166.173 47.1842 166.173 48.9691 166.043 50.754C165.912 52.5389 165.847 54.2551 165.847 55.9027C165.847 56.8638 165.814 57.9279 165.748 59.0949C165.748 60.1933 166.108 61.1201 166.827 61.8753C167.546 62.6304 168.592 63.1453 169.965 63.4199C171.338 63.6945 172.842 63.7974 174.476 63.7288ZM176.438 14.301C174.411 14.2324 172.711 14.198 171.338 14.198C170.031 14.1294 168.985 14.2324 168.2 14.507C167.481 14.7129 166.958 15.2278 166.631 16.0516C166.37 16.8067 166.271 17.9738 166.337 19.5527C166.337 20.8571 166.304 22.1614 166.239 23.4657C166.239 24.7014 166.239 25.9371 166.239 27.1728C166.239 28.5458 166.664 29.5756 167.514 30.2621C168.364 30.8799 169.41 31.2575 170.652 31.3948C171.959 31.5321 173.299 31.5321 174.672 31.3948C176.111 31.2575 177.353 31.0859 178.399 30.8799C180.752 30.468 182.55 29.6442 183.792 28.4085C185.1 27.1042 185.852 25.2163 186.048 22.7449C186.309 19.6557 185.525 17.5275 183.694 16.3605C181.929 15.1248 179.51 14.4383 176.438 14.301Z" fill="#CD1818"/>
    <path d="M80.7765 5.41696C81.0745 6.71808 81.0745 8.08768 80.7765 9.52577C80.6276 10.2106 80.4786 10.8954 80.3296 11.5802C80.2551 12.1965 80.1434 12.847 79.9944 13.5318L79.8827 13.9427C78.8399 18.1885 77.648 22.6739 76.3073 27.3991C75.041 32.0557 73.8864 36.4727 72.8436 40.6499C71.9497 44.0739 71.0186 47.8404 70.0503 51.9492C69.0819 56.058 68.0764 59.8244 67.0335 63.2484C66.6611 64.4125 66.2514 65.5767 65.8045 66.7408C65.432 67.905 64.9479 69.0692 64.352 70.2333C63.8305 71.2605 63.1974 72.185 62.4525 73.0068C61.7821 73.76 61 74.3079 60.1061 74.6503C59.2123 75.0612 58.244 75.1981 57.2011 75.0612C56.2328 74.9927 55.1527 74.5818 53.9609 73.8285C52.1732 72.6644 50.8324 71.0551 49.9385 69.0007C49.1192 66.9463 48.2626 65.0631 47.3687 63.3511C47.0708 62.8717 46.6238 61.8103 46.0279 60.1668C45.432 58.5232 44.7989 56.7428 44.1285 54.8253C43.4581 52.8394 42.7877 50.9562 42.1173 49.1757C41.5214 47.3267 41 45.9571 40.5531 45.0669C39.8827 46.5735 39.2123 48.2855 38.5419 50.2029C37.8715 52.1203 37.2384 54.0036 36.6425 55.8525C36.0466 57.7015 35.4879 59.3792 34.9665 60.8858C34.5196 62.3239 34.1844 63.3853 33.9609 64.0701C33.365 65.4397 32.6946 66.9463 31.9497 68.5898C31.2793 70.2333 30.4227 71.6372 29.3799 72.8013C28.4115 73.9655 27.2197 74.7188 25.8045 75.0612C24.3892 75.472 22.7132 75.0954 20.7765 73.9312C19.2868 73.1095 18.2439 71.9453 17.648 70.4388C17.2756 69.48 16.9032 68.5556 16.5307 67.6653C16.1583 66.7751 15.8603 65.8506 15.6369 64.8919L13.4022 57.1879L8.82123 40.6499C8.22533 38.5271 7.62942 36.3699 7.03352 34.1786C6.5121 31.9187 5.87896 29.5904 5.13408 27.1936C4.76164 26.0295 4.42644 24.8995 4.12849 23.8039C3.90503 22.6397 3.64432 21.4071 3.34637 20.1059C3.1229 18.7363 2.82495 17.1955 2.45251 15.4835C2.15456 13.7715 1.78212 11.7856 1.3352 9.52577C1.18622 8.77248 1.07449 8.08768 1 7.47137C1 6.78656 1.07449 6.10176 1.22346 5.41696C1.37244 4.38976 1.89385 3.49952 2.78771 2.74624C3.16015 2.40384 3.60708 2.12992 4.12849 1.92448C4.64991 1.71904 5.20857 1.54784 5.80447 1.41088C6.69832 1.13696 7.62942 1 8.59777 1C9.49162 1 10.4227 1.27392 11.3911 1.82176C12.0615 2.16416 12.5829 2.60928 12.9553 3.15712L14.2961 5.31424C14.4451 5.7936 14.594 6.23872 14.743 6.6496C14.892 6.992 15.041 7.36864 15.1899 7.77952C15.3389 8.25888 15.4507 8.70401 15.5251 9.11488C15.5996 9.45728 15.6741 9.79968 15.7486 10.1421C16.419 13.703 17.2384 17.1613 18.2067 20.5168C19.175 23.8723 20.0689 27.0909 20.8883 30.1725C21.1862 31.4051 21.5587 32.9459 22.0056 34.7949C22.4525 36.5754 22.8994 38.4586 23.3464 40.4445C23.7933 42.3619 24.2402 44.2109 24.6872 45.9914C25.1341 47.7719 25.581 49.1757 26.0279 50.2029C26.9963 47.1213 27.9646 44.0397 28.933 40.9581C29.9758 37.8765 31.0931 34.7607 32.2849 31.6106C32.8808 29.9671 33.4767 28.4947 34.0726 27.1936C34.743 25.824 35.4879 24.6941 36.3073 23.8039C37.1266 22.9136 38.0577 22.3315 39.1006 22.0576C40.1434 21.7837 41.3724 21.8864 42.7877 22.3658C44.054 22.8451 45.1713 23.8723 46.1397 25.4474C47.108 27.0224 47.9646 28.6317 48.7095 30.2752C49.3799 31.7818 50.013 33.3911 50.6089 35.1031C51.2793 36.7466 51.9125 38.3901 52.5084 40.0336C53.1788 41.6087 53.8119 43.1152 54.4078 44.5533C55.0037 45.9914 55.5996 47.224 56.1955 48.2512C56.419 47.4979 56.6797 46.5392 56.9777 45.3751C57.2756 44.2109 57.5736 42.9783 57.8715 41.6771C58.244 40.3075 58.5791 38.9722 58.8771 37.6711C59.1751 36.3699 59.473 35.1715 59.771 34.0759C60.7393 30.3779 61.7449 26.68 62.7877 22.9821C63.8305 19.2157 64.8361 15.5178 65.8045 11.8883L66.3631 10.1421C66.5121 9.79968 66.5866 9.45728 66.5866 9.11488C66.6611 8.70401 66.7728 8.25888 66.9218 7.77952C67.0708 7.36864 67.2197 6.992 67.3687 6.6496C67.5177 6.23872 67.6667 5.7936 67.8156 5.31424C67.9646 4.97184 68.1136 4.62944 68.2626 4.28704C68.486 3.87616 68.7467 3.49952 69.0447 3.15712C69.2682 2.81472 69.5289 2.5408 69.8268 2.33536C70.1248 2.12992 70.4227 1.95872 70.7207 1.82176C71.7635 1.27392 72.6574 1 73.4022 1C74.3706 1 75.3017 1.13696 76.1955 1.41088C77.3873 1.61632 78.4674 2.06144 79.4358 2.74624C80.1806 3.43104 80.6276 4.32128 80.7765 5.41696Z" fill="#CD1818"/>
    <path d="M220.16 4.04658C220.749 3.42873 221.5 3.05116 222.416 2.91386C223.396 2.70791 224.541 2.60493 225.848 2.60493H250.07C250.92 2.60493 251.868 2.60493 252.914 2.60493C254.025 2.53628 255.071 2.60494 256.052 2.81089C257.033 3.01684 257.883 3.39441 258.602 3.9436C259.386 4.42415 259.942 5.21363 260.269 6.31202C260.465 6.99852 260.53 7.78799 260.465 8.68043C260.465 9.57288 260.302 10.431 259.975 11.2548C259.713 12.0099 259.288 12.6964 258.7 13.3143C258.111 13.8635 257.392 14.1724 256.542 14.2411C254.843 14.5843 253.077 14.6873 251.247 14.55C249.416 14.344 247.651 14.2411 245.951 14.2411C244.055 14.2411 242.388 14.3097 240.95 14.447C239.512 14.5843 237.877 14.653 236.047 14.653C235.328 14.653 234.412 14.6186 233.301 14.55C232.19 14.4813 231.34 14.55 230.751 14.7559C230.228 14.8932 229.803 15.1678 229.476 15.5797C229.215 15.9916 229.019 16.4722 228.888 17.0214C228.757 17.5019 228.692 18.0168 228.692 18.566C228.692 19.1152 228.692 19.5957 228.692 20.0076C228.692 21.1747 228.627 22.3761 228.496 23.6117C228.43 24.7788 228.365 25.9458 228.3 27.1129C228.169 28.6918 228.365 29.5843 228.888 29.7902C229.476 29.9275 230.457 29.7902 231.83 29.3783C234.184 28.7605 236.603 28.4516 239.087 28.4516C242.421 28.4516 245.526 28.9321 248.403 29.8932C251.28 30.7856 253.764 32.193 255.856 34.1152C258.013 35.9687 259.681 38.3371 260.857 41.2204C262.099 44.035 262.721 47.3302 262.721 51.106C262.721 51.7925 262.688 52.4446 262.622 53.0625C262.622 53.6803 262.557 54.2982 262.426 54.916C261.903 59.2409 260.367 63.051 257.817 66.3462C255.268 69.6414 252.031 72.0098 248.109 73.4514C243.467 75.305 238.662 76.1631 233.693 76.0258C228.725 75.8199 224.148 74.3096 219.964 71.4949C218.787 70.7398 217.709 69.8473 216.728 68.8176C215.747 67.7192 215.028 66.4835 214.571 65.1105C214.048 63.6689 213.884 62.1929 214.08 60.6826C214.342 59.1036 215.224 57.9366 216.728 57.1815C217.839 56.6323 218.853 56.4606 219.768 56.6666C220.749 56.8039 221.664 57.1471 222.514 57.6963C223.364 58.1769 224.181 58.7947 224.965 59.5499C225.815 60.2364 226.665 60.8199 227.515 61.3004C229.019 62.0556 230.588 62.7078 232.222 63.257C233.857 63.7375 235.589 63.9778 237.42 63.9778C241.473 63.9778 244.709 62.8451 247.128 60.5796C249.613 58.3142 250.855 55.2593 250.855 51.4149C250.855 47.7078 249.58 44.8245 247.03 42.765C244.48 40.6369 241.048 39.5728 236.733 39.5728C235.622 39.5728 234.51 39.6415 233.399 39.7788C232.288 39.9161 231.176 40.1563 230.065 40.4996C229.019 40.7742 227.973 41.0831 226.927 41.4263C225.946 41.7696 224.965 42.0099 223.985 42.1472C223.004 42.2158 222.024 42.1128 221.043 41.8382C220.128 41.495 219.245 40.7742 218.395 39.6758C217.545 38.7147 217.12 37.5476 217.12 36.1746C217.12 34.8017 217.186 33.5316 217.316 32.3646C217.447 30.3737 217.545 28.3829 217.611 26.3921C217.676 24.4012 217.774 22.4104 217.905 20.4195C218.036 18.4287 218.134 16.4722 218.199 14.55C218.33 12.5591 218.46 10.5683 218.591 8.57746C218.657 7.41041 218.82 6.48364 219.082 5.79715C219.343 5.11065 219.703 4.52713 220.16 4.04658Z" fill="#D37E7E"/>
    <path d="M107.435 13.3569L107.239 29.5239H111.161C113.842 29.4553 116.228 29.421 118.32 29.421C120.412 29.421 122.733 29.4553 125.283 29.5239H125.773C126.558 29.5239 127.309 29.5583 128.029 29.6269C128.813 29.6269 129.565 29.6269 130.284 29.6269C131.069 29.6956 131.82 29.8329 132.54 30.0388C133.259 30.1761 133.978 30.3477 134.697 30.5537C135.808 30.9656 136.724 31.5834 137.443 32.4072C138.097 33.2997 138.424 34.2951 138.424 35.3935C138.424 35.7367 138.424 36.1486 138.424 36.6292C138.424 37.0411 138.358 37.4187 138.227 37.7619C138.097 38.5171 137.672 39.2036 136.953 39.8214C136.626 40.302 136.005 40.6452 135.089 40.8512C134.239 41.1258 133.389 41.2974 132.54 41.366C131.624 41.572 130.709 41.6749 129.794 41.6749H125.185L107.043 41.7779L106.847 61.9609L126.361 62.1669H130.971C131.494 62.1669 131.984 62.1669 132.442 62.1669C132.899 62.1669 133.324 62.2012 133.716 62.2699C134.239 62.4072 134.697 62.5101 135.089 62.5788C135.547 62.5788 135.972 62.6474 136.364 62.7847C137.149 63.0593 137.802 63.4369 138.325 63.9175C138.979 64.604 139.404 65.3248 139.6 66.0799C139.666 66.4232 139.698 66.8007 139.698 67.2126C139.764 67.5559 139.764 67.9335 139.698 68.3454C139.698 69.4438 139.371 70.4392 138.718 71.3316C137.933 72.2927 137.018 72.9106 135.972 73.1852C134.599 73.803 133.095 74.1119 131.461 74.1119C130.742 74.1806 129.99 74.2149 129.205 74.2149C128.421 74.2149 127.669 74.2492 126.95 74.3179H126.361C121.262 74.4552 115.967 74.4552 110.475 74.3179C109.167 74.3179 108.121 74.2836 107.337 74.2149C106.552 74.2149 105.833 74.2149 105.179 74.2149C104.591 74.2149 103.97 74.2149 103.316 74.2149C102.662 74.2149 101.813 74.2149 100.766 74.2149C99.2628 74.3522 98.0207 74.0776 97.04 73.3911C96.3209 72.9106 95.7652 72.2584 95.3729 71.4346C95.1768 71.2287 95.0787 71.0227 95.0787 70.8167C95.0133 70.6795 94.948 70.5765 94.8826 70.5078C94.8172 70.4392 94.7518 70.3362 94.6865 70.1989C94.5557 69.8557 94.4576 69.5124 94.3923 69.1692C94.3269 68.7573 94.2942 68.3797 94.2942 68.0364C94.2288 67.6932 94.1634 67.3499 94.0981 67.0067C94.0981 66.6634 94.0654 66.3202 94 65.9769V64.3293C94 64.0548 94 63.7802 94 63.5056C94.0654 63.231 94.0981 62.9564 94.0981 62.6818V54.6497L94.2942 39.8214V26.1258C94.2942 23.6544 94.2942 21.4576 94.2942 19.5354C94.3596 17.6132 94.4249 15.5194 94.4903 13.254V12.7391C94.5557 11.984 94.5884 11.2975 94.5884 10.6796C94.6538 9.99311 94.6865 9.30661 94.6865 8.62012C94.7518 7.24712 95.1114 5.90845 95.7652 4.60411C96.0267 4.05491 96.2882 3.57436 96.5497 3.16246C96.8766 2.75057 97.3015 2.40732 97.8245 2.13272C98.8052 1.51487 99.8185 1.20595 100.865 1.20595C101.388 1.20595 101.78 1.24027 102.041 1.30892V1.20595C103.218 1.20595 104.166 1.20595 104.885 1.20595C105.604 1.20595 106.291 1.20595 106.945 1.20595C107.664 1.20595 108.416 1.20595 109.2 1.20595C109.985 1.1373 111.063 1.10297 112.436 1.10297C115.051 1.03432 117.536 1 119.889 1C122.243 1 124.662 1.03432 127.146 1.10297H127.538C128.257 1.17162 129.009 1.20595 129.794 1.20595C130.578 1.20595 131.33 1.24027 132.049 1.30892C132.768 1.30892 133.488 1.41189 134.207 1.61785C134.926 1.75514 135.645 1.96109 136.364 2.23569C137.476 2.57894 138.391 3.16246 139.11 3.98626C139.698 4.94736 139.993 5.90845 139.993 6.86955C139.993 7.28144 139.993 7.69334 139.993 8.10524C139.993 8.44849 139.927 8.79174 139.796 9.13499C139.731 9.82149 139.339 10.5423 138.62 11.2975C138.358 11.4348 138.064 11.6064 137.737 11.8123C137.476 12.0183 137.149 12.1899 136.756 12.3272C136.364 12.4645 135.939 12.5675 135.482 12.6361C135.089 12.6361 134.697 12.6704 134.305 12.7391C133.782 12.8764 133.291 12.945 132.834 12.945C132.442 12.945 131.984 12.945 131.461 12.945H127.048L107.435 13.048V13.3569Z" fill="#D37E7E"/>
    <path d="M191.638 36.4405C193.534 37.7449 195.135 39.2895 196.443 41.0744C197.816 42.7906 198.894 44.9188 199.679 47.4588C200.529 50.2735 200.954 53.1224 200.954 56.0057C201.019 58.8203 200.529 61.4634 199.483 63.9347C198.502 66.3375 196.9 68.4656 194.678 70.3192C192.52 72.1041 189.676 73.3741 186.146 74.1292C184.25 74.6098 182.027 74.9873 179.478 75.2619C176.928 75.5365 174.64 75.6738 172.613 75.6738C170.063 75.7425 167.416 75.7425 164.67 75.6738C161.989 75.6738 159.374 75.3992 156.825 74.8501C155.713 74.5068 154.896 73.9233 154.373 73.0995C153.915 72.207 153.588 71.2116 153.392 70.1132C153.131 69.4954 153 68.8775 153 68.2597V9.77012C153 7.84793 153.36 6.37197 154.079 5.34222C154.863 4.24382 155.877 3.45435 157.119 2.97381C158.361 2.42461 159.766 2.11568 161.336 2.04703C162.905 1.90973 164.539 1.84108 166.239 1.84108C167.546 1.84108 168.854 1.84108 170.161 1.84108C171.534 1.77243 172.907 1.77243 174.28 1.84108C176.438 1.90973 178.66 2.11568 180.949 2.45893C183.302 2.73353 185.525 3.28273 187.617 4.10652C188.598 4.44977 189.644 4.93032 190.755 5.54817C191.866 6.09737 192.749 6.78386 193.403 7.60766C195.495 9.5985 197.031 11.9326 198.012 14.6099C199.058 17.2186 199.516 19.896 199.385 22.6419C199.254 25.3193 198.535 27.8936 197.227 30.365C195.985 32.8364 194.122 34.8616 191.638 36.4405ZM174.476 63.7288C176.503 63.5915 178.562 63.3512 180.654 63.008C182.746 62.6647 184.185 62.0125 184.969 61.0515C185.819 59.9531 186.408 58.683 186.734 57.2414C187.127 55.7311 187.225 54.2208 187.029 52.7105C186.898 51.1316 186.473 49.6556 185.754 48.2826C185.1 46.841 184.217 45.7082 183.106 44.8844C181.602 43.6488 179.87 42.8593 177.909 42.516C175.947 42.1041 174.019 41.8982 172.123 41.8982C171.207 41.8982 170.358 41.9325 169.573 42.0012C168.854 42.0012 168.2 42.1041 167.612 42.3101C167.089 42.4474 166.696 42.7563 166.435 43.2369C166.173 43.7174 166.043 44.4382 166.043 45.3993C166.173 47.1842 166.173 48.9691 166.043 50.754C165.912 52.5389 165.847 54.2551 165.847 55.9027C165.847 56.8638 165.814 57.9279 165.748 59.0949C165.748 60.1933 166.108 61.1201 166.827 61.8753C167.546 62.6304 168.592 63.1453 169.965 63.4199C171.338 63.6945 172.842 63.7974 174.476 63.7288ZM176.438 14.301C174.411 14.2324 172.711 14.198 171.338 14.198C170.031 14.1294 168.985 14.2324 168.2 14.507C167.481 14.7129 166.958 15.2278 166.631 16.0516C166.37 16.8067 166.271 17.9738 166.337 19.5527C166.337 20.8571 166.304 22.1614 166.239 23.4657C166.239 24.7014 166.239 25.9371 166.239 27.1728C166.239 28.5458 166.664 29.5756 167.514 30.2621C168.364 30.8799 169.41 31.2575 170.652 31.3948C171.959 31.5321 173.299 31.5321 174.672 31.3948C176.111 31.2575 177.353 31.0859 178.399 30.8799C180.752 30.468 182.55 29.6442 183.792 28.4085C185.1 27.1042 185.852 25.2163 186.048 22.7449C186.309 19.6557 185.525 17.5275 183.694 16.3605C181.929 15.1248 179.51 14.4383 176.438 14.301Z" stroke="#CD1818" stroke-width="2" mask="url(#path-1-outside-1_233_26)"/>
    <path d="M80.7765 5.41696C81.0745 6.71808 81.0745 8.08768 80.7765 9.52577C80.6276 10.2106 80.4786 10.8954 80.3296 11.5802C80.2551 12.1965 80.1434 12.847 79.9944 13.5318L79.8827 13.9427C78.8399 18.1885 77.648 22.6739 76.3073 27.3991C75.041 32.0557 73.8864 36.4727 72.8436 40.6499C71.9497 44.0739 71.0186 47.8404 70.0503 51.9492C69.0819 56.058 68.0764 59.8244 67.0335 63.2484C66.6611 64.4125 66.2514 65.5767 65.8045 66.7408C65.432 67.905 64.9479 69.0692 64.352 70.2333C63.8305 71.2605 63.1974 72.185 62.4525 73.0068C61.7821 73.76 61 74.3079 60.1061 74.6503C59.2123 75.0612 58.244 75.1981 57.2011 75.0612C56.2328 74.9927 55.1527 74.5818 53.9609 73.8285C52.1732 72.6644 50.8324 71.0551 49.9385 69.0007C49.1192 66.9463 48.2626 65.0631 47.3687 63.3511C47.0708 62.8717 46.6238 61.8103 46.0279 60.1668C45.432 58.5232 44.7989 56.7428 44.1285 54.8253C43.4581 52.8394 42.7877 50.9562 42.1173 49.1757C41.5214 47.3267 41 45.9571 40.5531 45.0669C39.8827 46.5735 39.2123 48.2855 38.5419 50.2029C37.8715 52.1203 37.2384 54.0036 36.6425 55.8525C36.0466 57.7015 35.4879 59.3792 34.9665 60.8858C34.5196 62.3239 34.1844 63.3853 33.9609 64.0701C33.365 65.4397 32.6946 66.9463 31.9497 68.5898C31.2793 70.2333 30.4227 71.6372 29.3799 72.8013C28.4115 73.9655 27.2197 74.7188 25.8045 75.0612C24.3892 75.472 22.7132 75.0954 20.7765 73.9312C19.2868 73.1095 18.2439 71.9453 17.648 70.4388C17.2756 69.48 16.9032 68.5556 16.5307 67.6653C16.1583 66.7751 15.8603 65.8506 15.6369 64.8919L13.4022 57.1879L8.82123 40.6499C8.22533 38.5271 7.62942 36.3699 7.03352 34.1786C6.5121 31.9187 5.87896 29.5904 5.13408 27.1936C4.76164 26.0295 4.42644 24.8995 4.12849 23.8039C3.90503 22.6397 3.64432 21.4071 3.34637 20.1059C3.1229 18.7363 2.82495 17.1955 2.45251 15.4835C2.15456 13.7715 1.78212 11.7856 1.3352 9.52577C1.18622 8.77248 1.07449 8.08768 1 7.47137C1 6.78656 1.07449 6.10176 1.22346 5.41696C1.37244 4.38976 1.89385 3.49952 2.78771 2.74624C3.16015 2.40384 3.60708 2.12992 4.12849 1.92448C4.64991 1.71904 5.20857 1.54784 5.80447 1.41088C6.69832 1.13696 7.62942 1 8.59777 1C9.49162 1 10.4227 1.27392 11.3911 1.82176C12.0615 2.16416 12.5829 2.60928 12.9553 3.15712L14.2961 5.31424C14.4451 5.7936 14.594 6.23872 14.743 6.6496C14.892 6.992 15.041 7.36864 15.1899 7.77952C15.3389 8.25888 15.4507 8.70401 15.5251 9.11488C15.5996 9.45728 15.6741 9.79968 15.7486 10.1421C16.419 13.703 17.2384 17.1613 18.2067 20.5168C19.175 23.8723 20.0689 27.0909 20.8883 30.1725C21.1862 31.4051 21.5587 32.9459 22.0056 34.7949C22.4525 36.5754 22.8994 38.4586 23.3464 40.4445C23.7933 42.3619 24.2402 44.2109 24.6872 45.9914C25.1341 47.7719 25.581 49.1757 26.0279 50.2029C26.9963 47.1213 27.9646 44.0397 28.933 40.9581C29.9758 37.8765 31.0931 34.7607 32.2849 31.6106C32.8808 29.9671 33.4767 28.4947 34.0726 27.1936C34.743 25.824 35.4879 24.6941 36.3073 23.8039C37.1266 22.9136 38.0577 22.3315 39.1006 22.0576C40.1434 21.7837 41.3724 21.8864 42.7877 22.3658C44.054 22.8451 45.1713 23.8723 46.1397 25.4474C47.108 27.0224 47.9646 28.6317 48.7095 30.2752C49.3799 31.7818 50.013 33.3911 50.6089 35.1031C51.2793 36.7466 51.9125 38.3901 52.5084 40.0336C53.1788 41.6087 53.8119 43.1152 54.4078 44.5533C55.0037 45.9914 55.5996 47.224 56.1955 48.2512C56.419 47.4979 56.6797 46.5392 56.9777 45.3751C57.2756 44.2109 57.5736 42.9783 57.8715 41.6771C58.244 40.3075 58.5791 38.9722 58.8771 37.6711C59.1751 36.3699 59.473 35.1715 59.771 34.0759C60.7393 30.3779 61.7449 26.68 62.7877 22.9821C63.8305 19.2157 64.8361 15.5178 65.8045 11.8883L66.3631 10.1421C66.5121 9.79968 66.5866 9.45728 66.5866 9.11488C66.6611 8.70401 66.7728 8.25888 66.9218 7.77952C67.0708 7.36864 67.2197 6.992 67.3687 6.6496C67.5177 6.23872 67.6667 5.7936 67.8156 5.31424C67.9646 4.97184 68.1136 4.62944 68.2626 4.28704C68.486 3.87616 68.7467 3.49952 69.0447 3.15712C69.2682 2.81472 69.5289 2.5408 69.8268 2.33536C70.1248 2.12992 70.4227 1.95872 70.7207 1.82176C71.7635 1.27392 72.6574 1 73.4022 1C74.3706 1 75.3017 1.13696 76.1955 1.41088C77.3873 1.61632 78.4674 2.06144 79.4358 2.74624C80.1806 3.43104 80.6276 4.32128 80.7765 5.41696Z" stroke="#CD1818" stroke-width="2" mask="url(#path-1-outside-1_233_26)"/>
    <path d="M220.16 4.04658C220.749 3.42873 221.5 3.05116 222.416 2.91386C223.396 2.70791 224.541 2.60493 225.848 2.60493H250.07C250.92 2.60493 251.868 2.60493 252.914 2.60493C254.025 2.53628 255.071 2.60494 256.052 2.81089C257.033 3.01684 257.883 3.39441 258.602 3.9436C259.386 4.42415 259.942 5.21363 260.269 6.31202C260.465 6.99852 260.53 7.78799 260.465 8.68043C260.465 9.57288 260.302 10.431 259.975 11.2548C259.713 12.0099 259.288 12.6964 258.7 13.3143C258.111 13.8635 257.392 14.1724 256.542 14.2411C254.843 14.5843 253.077 14.6873 251.247 14.55C249.416 14.344 247.651 14.2411 245.951 14.2411C244.055 14.2411 242.388 14.3097 240.95 14.447C239.512 14.5843 237.877 14.653 236.047 14.653C235.328 14.653 234.412 14.6186 233.301 14.55C232.19 14.4813 231.34 14.55 230.751 14.7559C230.228 14.8932 229.803 15.1678 229.476 15.5797C229.215 15.9916 229.019 16.4722 228.888 17.0214C228.757 17.5019 228.692 18.0168 228.692 18.566C228.692 19.1152 228.692 19.5957 228.692 20.0076C228.692 21.1747 228.627 22.3761 228.496 23.6117C228.43 24.7788 228.365 25.9458 228.3 27.1129C228.169 28.6918 228.365 29.5843 228.888 29.7902C229.476 29.9275 230.457 29.7902 231.83 29.3783C234.184 28.7605 236.603 28.4516 239.087 28.4516C242.421 28.4516 245.526 28.9321 248.403 29.8932C251.28 30.7856 253.764 32.193 255.856 34.1152C258.013 35.9687 259.681 38.3371 260.857 41.2204C262.099 44.035 262.721 47.3302 262.721 51.106C262.721 51.7925 262.688 52.4446 262.622 53.0625C262.622 53.6803 262.557 54.2982 262.426 54.916C261.903 59.2409 260.367 63.051 257.817 66.3462C255.268 69.6414 252.031 72.0098 248.109 73.4514C243.467 75.305 238.662 76.1631 233.693 76.0258C228.725 75.8199 224.148 74.3096 219.964 71.4949C218.787 70.7398 217.709 69.8473 216.728 68.8176C215.747 67.7192 215.028 66.4835 214.571 65.1105C214.048 63.6689 213.884 62.1929 214.08 60.6826C214.342 59.1036 215.224 57.9366 216.728 57.1815C217.839 56.6323 218.853 56.4606 219.768 56.6666C220.749 56.8039 221.664 57.1471 222.514 57.6963C223.364 58.1769 224.181 58.7947 224.965 59.5499C225.815 60.2364 226.665 60.8199 227.515 61.3004C229.019 62.0556 230.588 62.7078 232.222 63.257C233.857 63.7375 235.589 63.9778 237.42 63.9778C241.473 63.9778 244.709 62.8451 247.128 60.5796C249.613 58.3142 250.855 55.2593 250.855 51.4149C250.855 47.7078 249.58 44.8245 247.03 42.765C244.48 40.6369 241.048 39.5728 236.733 39.5728C235.622 39.5728 234.51 39.6415 233.399 39.7788C232.288 39.9161 231.176 40.1563 230.065 40.4996C229.019 40.7742 227.973 41.0831 226.927 41.4263C225.946 41.7696 224.965 42.0099 223.985 42.1472C223.004 42.2158 222.024 42.1128 221.043 41.8382C220.128 41.495 219.245 40.7742 218.395 39.6758C217.545 38.7147 217.12 37.5476 217.12 36.1746C217.12 34.8017 217.186 33.5316 217.316 32.3646C217.447 30.3737 217.545 28.3829 217.611 26.3921C217.676 24.4012 217.774 22.4104 217.905 20.4195C218.036 18.4287 218.134 16.4722 218.199 14.55C218.33 12.5591 218.46 10.5683 218.591 8.57746C218.657 7.41041 218.82 6.48364 219.082 5.79715C219.343 5.11065 219.703 4.52713 220.16 4.04658Z" stroke="#CD1818" stroke-width="2" mask="url(#path-1-outside-1_233_26)"/>
    <path d="M107.435 13.3569L107.239 29.5239H111.161C113.842 29.4553 116.228 29.421 118.32 29.421C120.412 29.421 122.733 29.4553 125.283 29.5239H125.773C126.558 29.5239 127.309 29.5583 128.029 29.6269C128.813 29.6269 129.565 29.6269 130.284 29.6269C131.069 29.6956 131.82 29.8329 132.54 30.0388C133.259 30.1761 133.978 30.3477 134.697 30.5537C135.808 30.9656 136.724 31.5834 137.443 32.4072C138.097 33.2997 138.424 34.2951 138.424 35.3935C138.424 35.7367 138.424 36.1486 138.424 36.6292C138.424 37.0411 138.358 37.4187 138.227 37.7619C138.097 38.5171 137.672 39.2036 136.953 39.8214C136.626 40.302 136.005 40.6452 135.089 40.8512C134.239 41.1258 133.389 41.2974 132.54 41.366C131.624 41.572 130.709 41.6749 129.794 41.6749H125.185L107.043 41.7779L106.847 61.9609L126.361 62.1669H130.971C131.494 62.1669 131.984 62.1669 132.442 62.1669C132.899 62.1669 133.324 62.2012 133.716 62.2699C134.239 62.4072 134.697 62.5101 135.089 62.5788C135.547 62.5788 135.972 62.6474 136.364 62.7847C137.149 63.0593 137.802 63.4369 138.325 63.9175C138.979 64.604 139.404 65.3248 139.6 66.0799C139.666 66.4232 139.698 66.8007 139.698 67.2126C139.764 67.5559 139.764 67.9335 139.698 68.3454C139.698 69.4438 139.371 70.4392 138.718 71.3316C137.933 72.2927 137.018 72.9106 135.972 73.1852C134.599 73.803 133.095 74.1119 131.461 74.1119C130.742 74.1806 129.99 74.2149 129.205 74.2149C128.421 74.2149 127.669 74.2492 126.95 74.3179H126.361C121.262 74.4552 115.967 74.4552 110.475 74.3179C109.167 74.3179 108.121 74.2836 107.337 74.2149C106.552 74.2149 105.833 74.2149 105.179 74.2149C104.591 74.2149 103.97 74.2149 103.316 74.2149C102.662 74.2149 101.813 74.2149 100.766 74.2149C99.2628 74.3522 98.0207 74.0776 97.04 73.3911C96.3209 72.9106 95.7652 72.2584 95.3729 71.4346C95.1768 71.2287 95.0787 71.0227 95.0787 70.8167C95.0133 70.6795 94.948 70.5765 94.8826 70.5078C94.8172 70.4392 94.7518 70.3362 94.6865 70.1989C94.5557 69.8557 94.4576 69.5124 94.3923 69.1692C94.3269 68.7573 94.2942 68.3797 94.2942 68.0364C94.2288 67.6932 94.1634 67.3499 94.0981 67.0067C94.0981 66.6634 94.0654 66.3202 94 65.9769V64.3293C94 64.0548 94 63.7802 94 63.5056C94.0654 63.231 94.0981 62.9564 94.0981 62.6818V54.6497L94.2942 39.8214V26.1258C94.2942 23.6544 94.2942 21.4576 94.2942 19.5354C94.3596 17.6132 94.4249 15.5194 94.4903 13.254V12.7391C94.5557 11.984 94.5884 11.2975 94.5884 10.6796C94.6538 9.99311 94.6865 9.30661 94.6865 8.62012C94.7518 7.24712 95.1114 5.90845 95.7652 4.60411C96.0267 4.05491 96.2882 3.57436 96.5497 3.16246C96.8766 2.75057 97.3015 2.40732 97.8245 2.13272C98.8052 1.51487 99.8185 1.20595 100.865 1.20595C101.388 1.20595 101.78 1.24027 102.041 1.30892V1.20595C103.218 1.20595 104.166 1.20595 104.885 1.20595C105.604 1.20595 106.291 1.20595 106.945 1.20595C107.664 1.20595 108.416 1.20595 109.2 1.20595C109.985 1.1373 111.063 1.10297 112.436 1.10297C115.051 1.03432 117.536 1 119.889 1C122.243 1 124.662 1.03432 127.146 1.10297H127.538C128.257 1.17162 129.009 1.20595 129.794 1.20595C130.578 1.20595 131.33 1.24027 132.049 1.30892C132.768 1.30892 133.488 1.41189 134.207 1.61785C134.926 1.75514 135.645 1.96109 136.364 2.23569C137.476 2.57894 138.391 3.16246 139.11 3.98626C139.698 4.94736 139.993 5.90845 139.993 6.86955C139.993 7.28144 139.993 7.69334 139.993 8.10524C139.993 8.44849 139.927 8.79174 139.796 9.13499C139.731 9.82149 139.339 10.5423 138.62 11.2975C138.358 11.4348 138.064 11.6064 137.737 11.8123C137.476 12.0183 137.149 12.1899 136.756 12.3272C136.364 12.4645 135.939 12.5675 135.482 12.6361C135.089 12.6361 134.697 12.6704 134.305 12.7391C133.782 12.8764 133.291 12.945 132.834 12.945C132.442 12.945 131.984 12.945 131.461 12.945H127.048L107.435 13.048V13.3569Z" stroke="#CD1818" stroke-width="2" mask="url(#path-1-outside-1_233_26)"/>
</svg>
